REM DIRINDEX 1\6,1\2\7,1\2\8,1\2\9,1\3\10,1\3\11,1\4\12,1\4\13,1\4\14,1\5\15,1\5\16,1\5\17
REM DIRNAME cjc041,folder01,folder02,folder03,folder04,folder05,folder06,folder07,folder08,folder09,folder10,folder11,folder12,folder13,folder14,folder15,folder16
TITLE ""
FILE "3Q_t_0601-0615.mp3" MP3
  TRACK 01 AUDIO
    TITLE "6:cjc041_2810"
    INDEX 01 00:00:00
  TRACK 02 AUDIO
    TITLE "0:"
    INDEX 01 00:08:13
  TRACK 03 AUDIO
    TITLE "10:cjc041_2811"
    INDEX 01 00:09:28
  TRACK 04 AUDIO
    TITLE "0:"
    INDEX 01 00:10:47
  TRACK 05 AUDIO
    TITLE "11:cjc041_2812"
    INDEX 01 00:11:29
  TRACK 06 AUDIO
    TITLE "0:"
    INDEX 01 00:13:02
  TRACK 07 AUDIO
    TITLE "10:cjc041_2813"
    INDEX 01 00:13:51
  TRACK 08 AUDIO
    TITLE "0:"
    INDEX 01 00:14:66
  TRACK 09 AUDIO
    TITLE "11:cjc041_2814"
    INDEX 01 00:15:42
  TRACK 10 AUDIO
    TITLE "0:"
    INDEX 01 00:16:73
  TRACK 11 AUDIO
    TITLE "10:cjc041_2815"
    INDEX 01 00:17:49
  TRACK 12 AUDIO
    TITLE "0:"
    INDEX 01 00:18:64
  TRACK 13 AUDIO
    TITLE "11:cjc041_2816"
    INDEX 01 00:19:42
  TRACK 14 AUDIO
    TITLE "0:"
    INDEX 01 00:20:61
  TRACK 15 AUDIO
    TITLE "10:cjc041_2817"
    INDEX 01 00:21:39
  TRACK 16 AUDIO
    TITLE "0:"
    INDEX 01 00:22:38
  TRACK 17 AUDIO
    TITLE "11:cjc041_2818"
    INDEX 01 00:23:14
  TRACK 18 AUDIO
    TITLE "0:"
    INDEX 01 00:24:18
  TRACK 19 AUDIO
    TITLE "10:cjc041_2819"
    INDEX 01 00:24:69
  TRACK 20 AUDIO
    TITLE "0:"
    INDEX 01 00:26:15
  TRACK 21 AUDIO
    TITLE "11:cjc041_2820"
    INDEX 01 00:26:69
  TRACK 22 AUDIO
    TITLE "0:"
    INDEX 01 00:28:51
  TRACK 23 AUDIO
    TITLE "10:cjc041_2821"
    INDEX 01 00:29:29
  TRACK 24 AUDIO
    TITLE "0:"
    INDEX 01 00:30:40
  TRACK 25 AUDIO
    TITLE "11:cjc041_2822"
    INDEX 01 00:31:20
  TRACK 26 AUDIO
    TITLE "0:"
    INDEX 01 00:32:48
  TRACK 27 AUDIO
    TITLE "10:cjc041_2823"
    INDEX 01 00:33:24
  TRACK 28 AUDIO
    TITLE "0:"
    INDEX 01 00:34:24
  TRACK 29 AUDIO
    TITLE "11:cjc041_2824"
    INDEX 01 00:35:06
  TRACK 30 AUDIO
    TITLE "0:"
    INDEX 01 00:36:29
  TRACK 31 AUDIO
    TITLE "10:cjc041_2825"
    INDEX 01 00:37:08
  TRACK 32 AUDIO
    TITLE "0:"
    INDEX 01 00:38:12
  TRACK 33 AUDIO
    TITLE "11:cjc041_2826"
    INDEX 01 00:38:59
  TRACK 34 AUDIO
    TITLE "0:"
    INDEX 01 00:41:02
  TRACK 35 AUDIO
    TITLE "10:cjc041_2827"
    INDEX 01 00:41:53
  TRACK 36 AUDIO
    TITLE "0:"
    INDEX 01 00:43:01
  TRACK 37 AUDIO
    TITLE "11:cjc041_2828"
    INDEX 01 00:43:54
  TRACK 38 AUDIO
    TITLE "0:"
    INDEX 01 00:45:00
  TRACK 39 AUDIO
    TITLE "10:cjc041_2829"
    INDEX 01 00:45:53
  TRACK 40 AUDIO
    TITLE "0:"
    INDEX 01 00:46:72
  TRACK 41 AUDIO
    TITLE "11:cjc041_2830"
    INDEX 01 00:47:50
  TRACK 42 AUDIO
    TITLE "0:"
    INDEX 01 00:48:73
  TRACK 43 AUDIO
    TITLE "10:cjc041_2831"
    INDEX 01 00:49:51
  TRACK 44 AUDIO
    TITLE "0:"
    INDEX 01 00:50:72
  TRACK 45 AUDIO
    TITLE "11:cjc041_2832"
    INDEX 01 00:51:46
  TRACK 46 AUDIO
    TITLE "0:"
    INDEX 01 00:54:25
  TRACK 47 AUDIO
    TITLE "10:cjc041_2833"
    INDEX 01 00:55:04
  TRACK 48 AUDIO
    TITLE "0:"
    INDEX 01 00:56:20
  TRACK 49 AUDIO
    TITLE "11:cjc041_2834"
    INDEX 01 00:56:72
  TRACK 50 AUDIO
    TITLE "0:"
    INDEX 01 00:58:42
  TRACK 51 AUDIO
    TITLE "10:cjc041_2835"
    INDEX 01 00:59:18
  TRACK 52 AUDIO
    TITLE "0:"
    INDEX 01 01:00:41
  TRACK 53 AUDIO
    TITLE "11:cjc041_2836"
    INDEX 01 01:01:19
  TRACK 54 AUDIO
    TITLE "0:"
    INDEX 01 01:05:17
  TRACK 55 AUDIO
    TITLE "10:cjc041_2837"
    INDEX 01 01:05:69
  TRACK 56 AUDIO
    TITLE "0:"
    INDEX 01 01:07:10
  TRACK 57 AUDIO
    TITLE "11:cjc041_2838"
    INDEX 01 01:07:68
  TRACK 58 AUDIO
    TITLE "0:"
    INDEX 01 01:09:63
  TRACK 59 AUDIO
    TITLE "10:cjc041_2839"
    INDEX 01 01:10:37
  TRACK 60 AUDIO
    TITLE "0:"
    INDEX 01 01:11:60
  TRACK 61 AUDIO
    TITLE "11:cjc041_2840"
    INDEX 01 01:12:40
  TRACK 62 AUDIO
    TITLE "0:"
    INDEX 01 01:13:51
